<?xml version="1.0" encoding="UTF-8" standalone="no"?>
<!-- Created with Inkscape (http://www.inkscape.org/) -->

<svg
   version="1.1"
   id="svg1619"
   width="800"
   height="800"
   viewBox="0 0 800 800"
   sodipodi:docname="message-in-a-bottle-publicdomainvectors.org.svg"
   inkscape:version="1.2 (dc2aedaf03, 2022-05-15)"
   xmlns:inkscape="http://www.inkscape.org/namespaces/inkscape"
   xmlns:sodipodi="http://sodipodi.sourceforge.net/DTD/sodipodi-0.dtd"
   xmlns="http://www.w3.org/2000/svg"
   xmlns:svg="http://www.w3.org/2000/svg">
  <defs
     id="defs1623">
    <clipPath
       clipPathUnits="userSpaceOnUse"
       id="clipPath1637">
      <path
         d="M 0,600 H 600 V 0 H 0 Z"
         id="path1635" />
    </clipPath>
  </defs>
  <sodipodi:namedview
     id="namedview1621"
     pagecolor="#ffffff"
     bordercolor="#000000"
     borderopacity="0.25"
     inkscape:showpageshadow="2"
     inkscape:pageopacity="0.0"
     inkscape:pagecheckerboard="0"
     inkscape:deskcolor="#d1d1d1"
     showgrid="false"
     inkscape:zoom="1.04625"
     inkscape:cx="399.5221"
     inkscape:cy="400.4779"
     inkscape:window-width="1920"
     inkscape:window-height="1017"
     inkscape:window-x="-8"
     inkscape:window-y="-8"
     inkscape:window-maximized="1"
     inkscape:current-layer="g1627">
    <inkscape:page
       x="0"
       y="0"
       id="page1625"
       width="800"
       height="800" />
  </sodipodi:namedview>
  <g
     id="g1627"
     inkscape:groupmode="layer"
     inkscape:label="Page 1"
     transform="matrix(1.3333333,0,0,-1.3333333,0,800)">
    <path
       d="m 0.191,0 h 599.81 V 599.773 H 0.191 Z"
       style="fill:#646cff;fill-opacity:0;fill-rule:nonzero;stroke:none"
       id="path1629" />
    <g
       id="g1631">
      <g
         id="g1633"
         clip-path="url(#clipPath1637)">
        <g
           id="g1639"
           transform="translate(511.9473,517.6362)">
          <path
             d="m 0,0 c 12.574,10.485 46.612,-30.34 34.037,-40.825 l -62.666,-52.248 c -12.574,-10.485 -46.612,30.34 -34.038,40.825 z"
             style="fill:#78471c;fill-opacity:1;fill-rule:evenodd;stroke:none"
             id="path1641" />
        </g>
        <g
           id="g1643"
           transform="translate(511.9473,517.6362)">
          <path
             d="m 0,0 c 4.98,4.153 13.331,0.252 20.817,-6.623 12.497,-20.793 14.021,-36.509 -16.181,-20.286 -7.741,4.16 -15.337,7.779 -22.866,11.71 z"
             style="fill:#946130;fill-opacity:1;fill-rule:evenodd;stroke:none"
             id="path1645" />
        </g>
        <g
           id="g1647"
           transform="translate(519.5596,489.3804)">
          <path
             d="m 0,0 c 15.293,-18.343 21.4,-38.459 13.643,-44.928 l -27.281,-22.746 -60.771,5.069 5.385,61.36 27.281,22.746 C -33.983,27.971 -15.295,18.344 0,0"
             style="fill:#79aa32;fill-opacity:1;fill-rule:evenodd;stroke:none"
             id="path1649" />
        </g>
        <g
           id="g1651"
           transform="translate(483.7617,503.1606)">
          <path
             d="m 0,0 -18.108,-15.099 c 8.231,-3.46 17.97,-11.047 26.625,-21.426 8.653,-10.379 14.364,-21.325 16.29,-30.045 l 18.107,15.099 c 0.814,2.276 -1.058,8.401 -1.784,10.357 -2.809,7.533 -7.687,14.951 -12.813,21.098 C 23.192,-13.867 16.773,-7.734 9.866,-3.619 8.075,-2.551 2.385,0.391 0,0"
             style="fill:#a1d74e;fill-opacity:1;fill-rule:evenodd;stroke:none"
             id="path1653" />
        </g>
        <g
           id="g1655"
           transform="translate(506.3311,443.75)">
          <path
             d="m 0,0 19.287,16.081 c -0.275,0.924 -0.54,1.709 -0.726,2.215 -2.809,7.534 -7.687,14.952 -12.813,21.099 -5.125,6.149 -11.544,12.281 -18.451,16.397 -0.464,0.276 -1.187,0.678 -2.048,1.114 L -34.038,40.825 C -27.484,36.743 -20.47,30.582 -14.053,22.886 -7.637,15.189 -2.839,7.181 0,0"
             style="fill:#97bd5f;fill-opacity:1;fill-rule:evenodd;stroke:none"
             id="path1657" />
        </g>
        <g
           id="g1659"
           transform="translate(492.2783,466.6357)">
          <path
             d="m 0,0 c 15.295,-18.344 21.403,-38.459 13.644,-44.929 -1.431,-1.191 -3.232,-1.837 -5.314,-1.981 -5.232,-0.364 -9.625,-2.131 -13.652,-5.487 l -39.647,-33.057 c -12.595,-10.5 -15.757,-28.162 -7.588,-42.381 5.526,-9.615 6.882,-19.981 4.031,-30.797 -2.947,-11.167 -9.563,-19.702 -19.64,-25.342 -89.434,-50.059 -161.665,-115.121 -224.114,-188.712 -14.4,-16.969 -39.77,-19.357 -57.083,-5.369 -35.599,28.763 -64.144,62.836 -85.559,102.275 -10.613,19.548 -3.692,44.042 15.58,55.144 83.788,48.271 160.925,107.728 226.347,186.894 7.353,8.901 16.934,13.877 28.445,14.773 11.167,0.871 21.133,-2.332 29.611,-9.51 12.517,-10.599 30.463,-10.666 43.061,-0.163 l 39.376,32.831 c 4.028,3.357 6.556,7.361 7.855,12.441 0.517,2.023 1.473,3.678 2.904,4.87 C -33.983,27.97 -15.294,18.344 0,0"
             style="fill:#79aa32;fill-opacity:1;fill-rule:evenodd;stroke:none"
             id="path1661" />
        </g>
        <g
           id="g1663"
           transform="translate(457.3516,479.9023)">
          <path
             d="m 0,0 c -1.9,-6.794 -5.542,-12.405 -11.004,-16.958 l -39.377,-32.831 c -16.423,-13.693 -39.941,-13.606 -56.262,0.213 -6.449,5.461 -13.759,7.768 -22.181,7.112 -8.708,-0.678 -15.773,-4.35 -21.335,-11.081 -64.353,-77.869 -141.88,-138.98 -229.134,-189.248 -14.452,-8.325 -19.644,-26.699 -11.686,-41.357 20.94,-38.565 48.849,-71.606 82.993,-99.191 12.98,-10.487 32.012,-8.698 42.811,4.027 65.025,76.628 138.946,141.784 226.924,191.026 7.622,4.266 12.501,10.561 14.73,19.006 2.15,8.156 1.199,15.753 -3.004,23.069 -10.652,18.54 -6.509,41.681 9.913,55.373 l 39.645,33.056 c 5.463,4.554 11.637,7.126 18.662,7.774 0.248,2.653 -1.36,7.738 -2.04,9.527 -2.806,7.374 -7.578,14.612 -12.608,20.646 C 22.015,-13.802 15.754,-7.806 9.004,-3.72 7.367,-2.729 2.654,-0.233 0,0"
             style="fill:#92c942;fill-opacity:1;fill-rule:evenodd;stroke:none"
             id="path1665" />
        </g>
        <g
           id="g1667"
           transform="translate(477.8789,420.0273)">
          <path
             d="m 0,0 2.506,2.091 17.515,14.602 c -0.332,1.126 -0.664,2.099 -0.893,2.699 -2.807,7.374 -7.578,14.612 -12.608,20.646 -5.033,6.035 -11.293,12.031 -18.043,16.117 -0.55,0.333 -1.447,0.834 -2.495,1.364 L -34.038,40.826 C -46.615,30.34 -12.575,-10.485 0,0"
             style="fill:#789550;fill-opacity:1;fill-rule:evenodd;stroke:none"
             id="path1669" />
        </g>
        <g
           id="g1671"
           transform="translate(487.4072,484.5181)">
          <path
             d="m 0,0 c 4.52,-3.604 8.65,-7.815 12.052,-11.896 3.403,-4.08 6.802,-8.898 9.534,-13.994 1.136,-2.121 3.187,-3.364 5.593,-3.388 2.406,-0.026 4.482,1.173 5.664,3.268 1.086,1.924 1.293,4.24 0.485,6.446 -0.006,0.02 -0.014,0.039 -0.02,0.058 -2.242,6.014 -6.137,11.891 -10.231,16.802 C 18.98,2.208 13.901,7.097 8.388,10.383 6.398,11.555 4.103,11.854 1.906,11.096 -0.366,10.311 -1.92,8.483 -2.327,6.112 -2.735,3.741 -1.882,1.5 0,0"
             style="fill:#d6ed9f;fill-opacity:1;fill-rule:evenodd;stroke:none"
             id="path1673" />
        </g>
        <g
           id="g1675"
           transform="translate(146.3506,181.333)">
          <path
             d="M 0,0 C 28.557,-34.251 42.283,-69.875 30.658,-79.567 19.03,-89.26 -13.545,-69.352 -42.102,-35.102 -70.658,-0.85 -84.384,34.774 -72.758,44.467 -61.133,54.159 -28.558,34.251 0,0"
             style="fill:#79aa32;fill-opacity:1;fill-rule:evenodd;stroke:none"
             id="path1677" />
        </g>
        <g
           id="g1679"
           transform="translate(330.7998,431.0083)">
          <path
             d="M 0,0 C 14.454,3.214 21.57,-10.929 27.064,-21.897 36.778,-41.296 25.625,-35.351 9.1,-34.328 c -27.341,0.399 -30.7,-17.624 -44.905,-37.515 -25.027,-35.04 -28.151,-36.452 -61.713,-62.068 -25.363,-19.589 -24.959,-21.24 -55.945,-34.127 -5.893,-2.438 -34.44,-17.236 -31.637,-1.681 5.064,16.161 40.403,31.818 55.307,43.313 19.59,15.399 52.285,44.644 66.909,64.23 C -45.175,-38.456 -31.988,-8.537 0,0"
             style="fill:#c3e682;fill-opacity:1;fill-rule:evenodd;stroke:none"
             id="path1681" />
        </g>
        <g
           id="g1683"
           transform="translate(346.6396,253.1748)">
          <path
             d="m 0,0 c -15.702,-10.922 -27.065,-19.038 -41.554,-31.436 -7.954,-6.804 -29.229,-25.166 -40.11,-17.045 -11.941,8.911 21.684,29.209 28.792,34.083 15.006,10.291 26.147,18.328 40.175,29.902 19.379,15.23 38.095,25.602 57.637,39.253 29.759,20.79 6.528,39.04 13.256,44.339 5.139,4.047 32.316,-28.357 16.526,-49.688 C 65.539,37.003 18.391,12.155 2.775,1.892 Z"
             style="fill:#c3e682;fill-opacity:1;fill-rule:evenodd;stroke:none"
             id="path1685" />
        </g>
        <g
           id="g1687"
           transform="translate(464.3486,444.0483)">
          <path
             d="M 0,0 C 8.221,-9.858 11.839,-20.391 8.083,-23.522 4.326,-26.654 -5.382,-21.2 -13.603,-11.34 -21.823,-1.48 -25.442,9.051 -21.685,12.183 -17.93,15.315 -8.222,9.861 0,0"
             style="fill:#475830;fill-opacity:1;fill-rule:evenodd;stroke:none"
             id="path1689" />
        </g>
        <g
           id="g1691"
           transform="translate(178.6089,144.3994)">
          <path
             d="M 0,0 C -19.582,-34.931 -76.166,75.679 -53.746,76.192 L 13.315,75.938 24.727,45.272 Z"
             style="fill:#afb837;fill-opacity:1;fill-rule:evenodd;stroke:none"
             id="path1693" />
        </g>
        <g
           id="g1695"
           transform="translate(160.6699,164.3281)">
          <path
             d="M 0,0 C -5.833,-5.667 -13.522,6.131 -22.154,26.797 -7.547,29.914 7.063,33.032 21.672,36.148 17.795,28.362 13.922,20.574 10.047,12.786 6.699,8.524 3.35,4.262 0,0"
             style="fill:#99a223;fill-opacity:1;fill-rule:evenodd;stroke:none"
             id="path1697" />
        </g>
        <g
           id="g1699"
           transform="translate(344.5049,331.0884)">
          <path
             d="m 0,0 c 2.61,29.593 0.3,51.413 -18.205,47.672 -53.257,-82.767 -121.745,-145.53 -201.437,-158.169 27.328,-4.514 46.387,-40.68 35.807,-56.263 C -123.296,-116.008 -60.539,-50.749 0,0"
             style="fill:#dce36a;fill-opacity:1;fill-rule:evenodd;stroke:none"
             id="path1701" />
        </g>
        <g
           id="g1703"
           transform="translate(152.54,215.582)">
          <path
             d="m 0,0 c 25.431,-22.258 38.953,-45.562 26.069,-71.183 59.948,79.011 123.149,136.752 191.41,161.33 4.987,28.789 -0.581,50.549 -16.131,65.662 C 141.628,85.887 75.67,31.139 0,0"
             style="fill:#d0d850;fill-opacity:1;fill-rule:evenodd;stroke:none"
             id="path1705" />
        </g>
        <g
           id="g1707"
           transform="translate(242.1021,283.6152)">
          <path
             d="m 0,0 c -1.861,0.998 -2.563,3.316 -1.563,5.179 0.999,1.861 3.318,2.561 5.18,1.563 8.711,-4.649 16.674,-9.938 22.767,-16.827 6.252,-7.067 10.43,-15.683 11.289,-26.762 0.166,-2.099 -1.402,-3.937 -3.501,-4.105 -2.099,-0.166 -3.938,1.402 -4.104,3.501 -0.719,9.261 -4.19,16.434 -9.381,22.304 C 15.336,-9.099 8.054,-4.298 0,0"
             style="fill:#624f3e;fill-opacity:1;fill-rule:evenodd;stroke:none"
             id="path1709" />
        </g>
        <g
           id="g1711"
           transform="translate(238.2285,280.6533)">
          <path
             d="M 0,0 C -1.529,1.45 -1.589,3.864 -0.14,5.391 1.312,6.92 3.726,6.98 5.253,5.53 c 8.424,-8.029 15.231,-15.965 19.878,-23.767 4.836,-8.126 7.35,-16.135 6.954,-23.994 -0.113,-2.105 -1.912,-3.721 -4.017,-3.61 -2.105,0.114 -3.72,1.912 -3.607,4.017 0.315,6.265 -1.807,12.85 -5.876,19.687 C 14.323,-14.979 7.951,-7.58 0,0"
             style="fill:#624f3e;fill-opacity:1;fill-rule:evenodd;stroke:none"
             id="path1713" />
        </g>
      </g>
    </g>
  </g>
</svg>
